<svg width="25" height="24" viewBox="0 0 25 24" fill="none" xmlns="http://www.w3.org/2000/svg">
<path d="M12.5037 14V12.3607M12.5037 14C10.8375 14 9.1713 13.8179 7.50512 13.4538M12.5037 14C14.1703 14 15.837 13.8181 17.5037 13.4538M7.50512 13.4538C6.23023 13.1752 4.95535 12.7899 3.68046 12.2981C3.1709 12.1015 2.91612 12.0032 2.7413 11.7781C2.45124 11.4046 2.50366 10.8844 2.50366 10.4395C2.50366 9.208 2.50366 7.59222 2.80446 7.27065C3.37392 6.66188 4.46101 7.22222 5.09329 7.42709C10.0335 9.02778 14.9738 9.02778 19.914 7.42709C20.5463 7.22222 21.6334 6.66188 22.2029 7.27065C22.5037 7.59222 22.5037 9.208 22.5037 10.4395C22.5037 11.0572 22.5037 11.366 22.3676 11.6211C22.1587 12.0131 21.7173 12.1475 21.3269 12.2981C20.0524 12.7897 18.7781 13.1752 17.5037 13.4538M7.50512 13.4538L7.50366 11.8141M17.5037 13.4538V11.8141" stroke="white" stroke-width="1.5" stroke-linecap="round" stroke-linejoin="round"/>
<path d="M4.59215 3.23717C4.46116 2.84421 4.67353 2.41947 5.06649 2.28849C5.45945 2.1575 5.88419 2.36987 6.01517 2.76283L4.59215 3.23717ZM5.25366 21C5.25366 21.4142 4.91788 21.75 4.50366 21.75C4.08945 21.75 3.75366 21.4142 3.75366 21H5.25366ZM18.9921 2.76283C19.1231 2.36987 19.5479 2.1575 19.9408 2.28849C20.3338 2.41947 20.5462 2.84421 20.4152 3.23717L18.9921 2.76283ZM21.2537 21C21.2537 21.4142 20.9179 21.75 20.5037 21.75C20.0894 21.75 19.7537 21.4142 19.7537 21H21.2537ZM5.19908 15.2868C5.31683 14.8897 5.73421 14.6632 6.13134 14.7809C6.52846 14.8987 6.75494 15.3161 6.63719 15.7132L5.19908 15.2868ZM18.3701 15.7132C18.2524 15.3161 18.4789 14.8987 18.876 14.7809C19.2731 14.6632 19.6905 14.8897 19.8082 15.2868L18.3701 15.7132ZM19.3202 7.64482C19.2805 8.05713 18.9141 8.35921 18.5018 8.31953C18.0895 8.27985 17.7874 7.91344 17.8271 7.50113L19.3202 7.64482ZM7.18027 7.50113C7.21994 7.91344 6.91787 8.27985 6.50556 8.31953C6.09325 8.35921 5.72684 8.05713 5.68717 7.64482L7.18027 7.50113ZM6.63719 15.7132C6.48208 16.2363 6.31258 16.7039 6.15057 17.137C5.98612 17.5765 5.83527 17.9655 5.70089 18.3675C5.43937 19.15 5.25366 19.9454 5.25366 21H3.75366C3.75366 19.7435 3.98008 18.7842 4.27824 17.8921C4.4237 17.4568 4.58959 17.0285 4.74568 16.6113C4.90421 16.1876 5.05908 15.7589 5.19908 15.2868L6.63719 15.7132ZM19.8082 15.2868C19.9482 15.7589 20.1031 16.1876 20.2616 16.6113C20.4177 17.0285 20.5836 17.4568 20.7291 17.8921C21.0272 18.7842 21.2537 19.7435 21.2537 21H19.7537C19.7537 19.9454 19.568 19.15 19.3064 18.3675C19.1721 17.9655 19.0212 17.5765 18.8568 17.137C18.6947 16.7039 18.5252 16.2363 18.3701 15.7132L19.8082 15.2868ZM20.4152 3.23717C20.0913 4.20865 19.5557 5.19681 19.3202 7.64482L17.8271 7.50113C18.0836 4.83496 18.7055 3.62288 18.9921 2.76283L20.4152 3.23717ZM6.01517 2.76283C6.30186 3.62288 6.92369 4.83496 7.18027 7.50113L5.68717 7.64482C5.45158 5.19681 4.91598 4.20865 4.59215 3.23717L6.01517 2.76283Z" fill="white"/>
<path d="M19.5037 19C14.837 20.3333 10.1703 20.3333 5.50366 19" stroke="white" stroke-width="1.5" stroke-linecap="round" stroke-linejoin="round"/>
</svg>
