<svg width="25" height="24" viewBox="0 0 25 24" fill="none" xmlns="http://www.w3.org/2000/svg">
<path d="M19.5 10.75H17.5C15.08 10.75 13.75 9.42 13.75 7V5C13.75 2.58 15.08 1.25 17.5 1.25H19.5C21.92 1.25 23.25 2.58 23.25 5V7C23.25 9.42 21.92 10.75 19.5 10.75ZM17.5 2.75C15.92 2.75 15.25 3.42 15.25 5V7C15.25 8.58 15.92 9.25 17.5 9.25H19.5C21.08 9.25 21.75 8.58 21.75 7V5C21.75 3.42 21.08 2.75 19.5 2.75H17.5Z" fill="white"/>
<path d="M7.5 22.75H5.5C3.08 22.75 1.75 21.42 1.75 19V17C1.75 14.58 3.08 13.25 5.5 13.25H7.5C9.92 13.25 11.25 14.58 11.25 17V19C11.25 21.42 9.92 22.75 7.5 22.75ZM5.5 14.75C3.92 14.75 3.25 15.42 3.25 17V19C3.25 20.58 3.92 21.25 5.5 21.25H7.5C9.08 21.25 9.75 20.58 9.75 19V17C9.75 15.42 9.08 14.75 7.5 14.75H5.5Z" fill="white"/>
<path d="M6.5 10.75C3.88 10.75 1.75 8.62 1.75 6C1.75 3.38 3.88 1.25 6.5 1.25C9.12 1.25 11.25 3.38 11.25 6C11.25 8.62 9.12 10.75 6.5 10.75ZM6.5 2.75C4.71 2.75 3.25 4.21 3.25 6C3.25 7.79 4.71 9.25 6.5 9.25C8.29 9.25 9.75 7.79 9.75 6C9.75 4.21 8.29 2.75 6.5 2.75Z" fill="white"/>
<path d="M18.5 22.75C15.88 22.75 13.75 20.62 13.75 18C13.75 15.38 15.88 13.25 18.5 13.25C21.12 13.25 23.25 15.38 23.25 18C23.25 20.62 21.12 22.75 18.5 22.75ZM18.5 14.75C16.71 14.75 15.25 16.21 15.25 18C15.25 19.79 16.71 21.25 18.5 21.25C20.29 21.25 21.75 19.79 21.75 18C21.75 16.21 20.29 14.75 18.5 14.75Z" fill="white"/>
</svg>
