<svg width="90" height="90" viewBox="0 0 90 90" fill="none" xmlns="http://www.w3.org/2000/svg">
<path d="M51.9603 82.5C97.7935 71.25 72.1269 26.25 40.9603 7.5C37.2949 20.625 31.7939 24.375 20.7936 37.5C6.22956 54.8771 13.4606 75 33.627 82.5C30.5715 78.75 22.6859 70.8782 28.125 60C30 56.25 33.75 52.5 31.875 45C35.5417 46.875 43.125 48.75 45 58.125C48.0553 54.375 51.2267 46.5 48.2936 37.5C71.25 54.375 61.875 71.25 51.9603 82.5Z" stroke="#AFFC4C" stroke-width="1.5" stroke-linecap="round" stroke-linejoin="round"/>
<rect x="20" y="32" width="50" height="50" rx="25" fill="black" fill-opacity="0.5"/>
<path d="M37.5 75.5L49.85 44.3H56.55L44.55 75.5H37.5ZM32.65 46.25V40.35H56.55V44.3L54 46.25H32.65Z" fill="white"/>
</svg>
