<svg width="25" height="24" viewBox="0 0 25 24" fill="none" xmlns="http://www.w3.org/2000/svg">
<path d="M18.29 22.75H6.71C3.97 22.75 1.75 20.52 1.75 17.78V10.37C1.75 9.01 2.59 7.3 3.67 6.46L9.06 2.26C10.68 1 13.27 0.940005 14.95 2.12L21.13 6.45C22.32 7.28 23.25 9.06001 23.25 10.51V17.79C23.25 20.52 21.03 22.75 18.29 22.75ZM9.98 3.44L4.59 7.64C3.88 8.2 3.25 9.47001 3.25 10.37V17.78C3.25 19.69 4.8 21.25 6.71 21.25H18.29C20.2 21.25 21.75 19.7 21.75 17.79V10.51C21.75 9.55 21.06 8.22 20.27 7.68L14.09 3.35C12.95 2.55 11.07 2.59 9.98 3.44Z" fill="white"/>
<path d="M12.5 18.75C12.09 18.75 11.75 18.41 11.75 18V15C11.75 14.59 12.09 14.25 12.5 14.25C12.91 14.25 13.25 14.59 13.25 15V18C13.25 18.41 12.91 18.75 12.5 18.75Z" fill="white"/>
</svg>
