<svg width="101" height="100" viewBox="0 0 101 100" fill="none" xmlns="http://www.w3.org/2000/svg">
<path d="M34.7627 70.1208C33.5463 70.4627 29.7016 70.4386 28.4876 70.2268C25.2718 69.6655 25.9007 65.3014 25.9016 62.9794L25.8982 36.3021C25.8969 33.911 25.6894 30.7208 28.6897 30.1221C29.6351 30.0704 30.608 30.1166 31.5558 30.1183C33.4797 30.1214 35.8033 29.7989 36.6947 32.0075C38.1101 35.5143 38.2271 64.8588 36.7143 68.318C36.3268 69.2039 35.6543 69.7786 34.7627 70.1208Z" fill="#AFFC4C"/>
<path d="M71.9249 70.3025L69.1218 70.3062C66.7963 70.3111 64.7735 70.2401 64.2382 67.2983C63.8865 65.3651 63.8397 63.3398 63.7216 61.3814C63.2291 53.2231 63.196 44.0797 63.9277 35.9072C64.1362 33.5793 64.2088 30.65 67.1007 30.122C68.3438 30.0383 72.0522 30.0114 72.9821 30.2304C75.6362 30.8559 75.363 34.2481 75.3524 36.3378L75.3494 61.9703C75.351 64.9676 76.2579 70.0953 71.9249 70.3025Z" fill="#AFFC4C"/>
<path d="M19.8739 69.0219C15.6833 66.6657 15.184 58.1747 15.1791 53.9335L15.177 48.9143C15.1781 45.1997 15.3402 31.1149 21.1636 31.161C26.5991 30.17 25.4586 46.6805 25.4589 49.3185C25.4594 53.3127 25.7734 63.7794 24.3584 67.0322C23.557 68.8749 21.8006 69.8897 19.8739 69.0219Z" fill="#AFFC4C"/>
<path d="M81.8223 68.6944C80.7547 69.4103 79.4515 69.5375 78.3373 68.8173C76.0137 67.3158 75.9889 62.6242 75.8662 60.1677C75.5768 54.3655 75.7201 48.1613 75.8665 42.33C75.9447 39.2155 75.5946 31.9628 79.5764 31.1609C86.2932 30.5616 86.1965 46.5545 86.1976 50.4867C86.199 55.6305 86.3025 65.3461 81.8223 68.6944Z" fill="#AFFC4C"/>
<path d="M10.9344 55.2122C9.87512 54.305 9.27929 53.0116 9.15051 51.6364C8.77937 47.6739 9.81329 43.7508 14.3972 43.3794C14.7561 43.3846 14.7184 43.627 14.7172 43.9433L14.599 56.6516C13.2554 56.6603 11.9508 56.0658 10.9344 55.2122Z" fill="#AFFC4C"/>
<path d="M86.789 56.4352L86.7902 47.3449C86.7902 46.0569 86.6319 44.6491 86.789 43.3794C89.5082 43.4055 91.8238 45.4625 92.1327 48.1744C92.4629 51.0731 92.3668 52.7691 90.59 54.9836C89.2908 55.8335 88.3704 56.3274 86.789 56.4352Z" fill="#AFFC4C"/>
<path d="M38.1757 45.3599C38.483 45.3681 38.7915 45.3616 39.099 45.3599H63.0493V54.9836C62.6933 55.0036 62.3379 54.9914 61.9818 54.9836L46.1329 54.9835C43.4821 54.9836 40.8257 55.0241 38.1757 54.9836C38.0318 52.2135 38.0386 48.1335 38.1757 45.3599Z" fill="#AFFC4C"/>
</svg>
