<svg width="41" height="42" viewBox="0 0 41 42" fill="none" xmlns="http://www.w3.org/2000/svg">
<path d="M37.5371 12.3334C38.2428 12.3334 38.8149 11.7613 38.8149 11.0556C38.8149 10.3499 38.2428 9.77782 37.5371 9.77782V12.3334ZM23.9075 9.77782C23.2018 9.77782 22.6297 10.3499 22.6297 11.0556C22.6297 11.7613 23.2018 12.3334 23.9075 12.3334V9.77782ZM32.0001 4.24078C32.0001 3.53509 31.428 2.96301 30.7223 2.96301C30.0166 2.96301 29.4445 3.53509 29.4445 4.24078H32.0001ZM29.4445 17.8704C29.4445 18.5761 30.0166 19.1482 30.7223 19.1482C31.428 19.1482 32.0001 18.5761 32.0001 17.8704H29.4445ZM37.5371 9.77782H30.7223V12.3334H37.5371V9.77782ZM30.7223 9.77782H23.9075V12.3334H30.7223V9.77782ZM29.4445 4.24078V11.0556H32.0001V4.24078H29.4445ZM29.4445 11.0556V17.8704H32.0001V11.0556H29.4445Z" fill="white"/>
<path d="M19.6483 5.94446C12.0186 5.94446 8.20367 5.94446 5.8334 8.31472C3.46313 10.685 3.46313 14.4999 3.46313 22.1296C3.46313 29.7594 3.46313 33.5743 5.8334 35.9446C8.20367 38.3148 12.0186 38.3148 19.6483 38.3148C27.2781 38.3148 31.093 38.3148 33.4632 35.9446C35.8335 33.5743 35.8335 29.7594 35.8335 22.1296V21.2778" stroke="white" stroke-width="2.55556" stroke-linecap="round"/>
<path d="M3.46313 24.916C4.51776 24.7628 5.58397 24.6871 6.65198 24.6898C11.1701 24.5943 15.5776 26.0021 19.0879 28.662C22.3436 31.1289 24.6312 34.5239 25.6113 38.3149" stroke="white" stroke-width="2.55556" stroke-linejoin="round"/>
<path d="M35.8333 29.6195C33.8307 28.6052 31.7594 28.0905 29.6765 28.0927C26.5217 28.0802 23.3989 29.2398 20.5 31.5" stroke="white" stroke-width="2.55556" stroke-linejoin="round"/>
</svg>
