<svg width="300" height="300" viewBox="0 0 300 300" fill="none" xmlns="http://www.w3.org/2000/svg">
<path d="M87.1607 183.911L87.18 224.987C87.24 234.125 86.8181 232.44 77.2692 232.471C69.0759 232.498 61.0565 230.401 55.1132 224.439C46.2133 215.511 47.3081 206.952 47.3114 195.5L47.3067 66.302C47.2893 46.594 50.3639 42.8616 69.8737 42.8652L145.158 42.8699H191.181C190.3 46.749 190.384 50.4235 189.715 53.964C189.425 55.4982 187.091 54.2537 186.489 53.649C185.165 52.3182 185.609 48.5875 185.618 46.7897C178.064 46.6198 170.464 46.7921 162.907 46.7919L81.0534 46.7844C74.669 46.7835 68.2303 46.5926 61.8548 46.8301C57.1485 47.0054 54.592 48.3282 53.1131 53.1835C58.2403 58.7926 71.2931 59.6125 78.2001 59.59C88.0298 59.5581 87.0459 59.0204 87.1115 67.5634L87.1607 183.911Z" fill="#AFFC4C"/>
<path d="M142.277 63.9851C138.259 63.6504 134.004 63.9846 129.96 63.986L103.939 63.9884C101.922 63.9902 92.6578 64.578 91.433 63.5116C89.7891 57.828 99.3094 60.2102 103.767 60.2135L135.599 60.2173C149.969 60.2154 162.346 60.0654 176.542 58.2494L200.08 55.1285C206.018 54.3265 206.442 54.1338 211.614 51.8444C213.971 51.6954 211.662 55.1993 211.394 57.8538C211.187 59.8929 212.133 66.6358 208.653 63.6616C207.147 62.374 206.885 60.4727 206.733 58.6034C201.403 58.4065 193.351 59.9369 187.818 60.6987C172 62.876 157.669 65.3158 141.959 68.0651L124.07 71.0327C117.426 72.1605 110.436 72.0869 106.849 78.4062C119.348 78.5993 133.858 76.7177 146.262 75.3401C169.35 72.7755 191.733 69.7676 214.609 65.9159C221.867 64.6934 229.037 64.3535 236.089 62.0951C233.902 68.2634 234.777 70.8912 233.69 76.0371C230.047 78.5735 229.958 69.5777 229.981 67.9915C224.357 68.0707 218.288 69.2688 212.718 70.1576L191.053 73.5133C167.951 76.9877 141.848 80.5601 118.417 81.6644C115.019 81.8248 104.768 81.4709 104.862 83.0051C104.934 84.1798 106.821 85.6699 107.682 86.3712C114.333 91.7899 122.472 93.0879 130.773 93.5121C139.725 93.9696 138.792 93.8294 138.769 101.621L138.762 156.518L138.763 245.76C138.765 249.484 138.903 253.248 138.758 256.967C138.666 259.334 138.226 259.982 135.791 260.207C126.288 261.086 116.802 259.541 109.332 253.216C99.1172 244.568 99.2658 234.286 99.2705 222.284L99.2672 97.5968C99.2503 87.581 98.6996 75.2519 109.629 70.3924C114.874 68.0604 135.212 64.4712 142.277 63.9851Z" fill="#AFFC4C"/>
<path d="M148.571 259.372C142.094 260.406 142.971 256.89 142.965 252.104L142.966 136.748C142.965 123.8 142.762 110.814 142.979 97.869C143.056 93.2635 151.885 93.7993 155.914 93.0676L222.826 81.504C229.486 80.3105 236.189 78.879 242.884 77.9494C248.483 77.6016 248.057 83.2351 248.061 87.2382L248.067 223.606C248.068 227.85 248.157 232.117 248.034 236.358C247.826 243.533 241.392 242.816 235.41 243.927L148.571 259.372Z" fill="#AFFC4C"/>
</svg>
