<svg width="300" height="300" viewBox="0 0 300 300" fill="none" xmlns="http://www.w3.org/2000/svg">
<path d="M63.4227 91.7969C63.2376 90.3574 63.2741 88.8621 63.1148 87.4061L60.1035 61.5518C59.2166 53.8774 56.1079 42.8579 67.3396 41.5904L195.078 41.576C211.082 41.515 207.962 49.5405 206.562 61.3L204.32 80.5675C203.714 85.6516 202.916 90.8515 202.89 95.9768C199.432 98.0871 195.608 99.5552 191.786 100.856C174.24 106.588 155.657 105.388 138.277 99.6621C131.388 97.3924 124.76 94.4772 117.803 92.3707C97.2923 86.1593 83.4041 86.1616 63.4227 91.7969Z" fill="#AFFC4C"/>
<path d="M64.4602 97.241C72.443 94.8447 76.9346 93.6358 85.6491 93.0457C106.226 92.6271 118.101 99.0897 136.081 105.049C157.527 112.157 181.699 112.547 202.185 102.24C202.09 105.325 201.625 108.485 201.296 111.556L196.66 153.04C196 158.704 195.507 164.412 194.588 170.042L179.73 170.037C176.221 170.037 172.266 169.708 168.838 170.521C157.223 173.276 162.4 186.539 164.002 193.739C167.139 207.837 170.79 222.526 174.324 236.541C175.419 240.913 177.036 244.898 178.616 249.103C173.925 261.393 159.762 259.854 149.378 259.855L109.554 259.859C105.942 259.864 102.04 260.123 98.4718 259.501C85.6018 257.259 82.5802 247.183 81.1369 236.355L66.3413 114.64C65.6747 108.859 64.8474 103.045 64.4602 97.241Z" fill="#AFFC4C"/>
<path d="M245.622 250.418C237.226 261.217 227.876 259.86 215.894 259.855C210.323 259.854 201.425 260.402 196.33 259.035C181.099 254.945 178.694 239.466 175.473 226.491L168.409 196.787C167.789 194.166 167.127 191.558 166.435 188.956C164.07 180.063 162.565 174.37 173.752 173.897L248.26 173.888C253.643 173.882 262.551 172.39 263.613 179.937C264.171 183.9 261.797 191.267 260.893 195.203L255.459 218.042C253.299 226.968 251.05 243.092 245.622 250.418ZM171.548 181.788C171.555 185.001 172.831 188.462 173.595 191.589L178.536 211.075C180.309 218.055 181.983 225.042 183.83 232.005C186.634 242.574 189.325 253.333 202.663 253.289L219.572 253.246C231.022 253.244 238.797 254.018 242.98 240.077C245.077 233.175 246.422 225.962 248.128 218.95L253.166 197.555C253.66 195.401 257.654 182.503 255.197 182.048C252.309 181.513 249.003 181.789 246.063 181.788H171.548Z" fill="#AFFC4C"/>
<path d="M228.154 206.788C215.666 204.299 205.555 202.094 192.532 202.868C190.329 202.999 182.822 204.037 181.149 203.585C179.279 203.079 177.751 199.627 179.219 198.064C180.987 196.182 196.467 195.831 199.751 195.81C211.032 195.359 221.359 199.585 232.434 200.385C235.546 200.61 246.565 199.788 248.308 201.331C249.708 202.571 249.487 204.825 248.207 206.069C245.885 208.327 231.616 206.858 228.154 206.788Z" fill="#AFFC4C"/>
<path d="M207.532 213.594C202.658 214.286 200.672 207.274 206.063 206.788C210.929 205.57 212.062 211.895 207.532 213.594Z" fill="#AFFC4C"/>
<path d="M226.098 216.794C220.883 217.07 219.921 210.695 224.809 209.495C230.002 209.35 230.78 215.409 226.098 216.794Z" fill="#AFFC4C"/>
<path d="M196.682 233.08C185.441 233.026 184.296 216.956 195.81 216.127C206.167 216.463 207.445 231.002 196.682 233.08ZM195.326 221.646C191.612 223.217 192.718 226.815 196.682 227.137C200.238 225.774 199.132 221.537 195.326 221.646Z" fill="#AFFC4C"/>
<path d="M214.391 227.137C210.056 228.272 207.596 222.748 211.953 220.782C217.101 220.362 218.84 224.882 214.391 227.137Z" fill="#AFFC4C"/>
</svg>
