<svg width="300" height="300" viewBox="0 0 300 300" fill="none" xmlns="http://www.w3.org/2000/svg">
<path d="M96.8835 45.3515C98.4239 41.6747 101.945 37.8377 104.369 34.5287C106.718 31.3221 107.936 27.9929 112.328 27.4438C114.728 27.4828 134.859 36.4265 138.36 38.9223C138.259 39.6152 138.24 40.5702 137.609 41.0027C134.914 41.262 122.163 34.2608 118.147 33.2504C117.215 34.2405 116.656 35.1703 116.213 36.4543C120.821 40.6766 136.012 44.143 138.255 46.5186C139.237 47.5581 139.221 50.492 137.2 49.5423C131.101 46.6751 127.085 44.5105 120.281 42.3363C119.679 43.2778 119.307 44.2934 118.969 45.3515C122.123 49.5315 129.388 49.0108 131.401 51.535C132.573 53.0054 131.819 57.5495 126.965 56.649C125.145 56.1892 121.438 54.0072 119.777 55.7228C115.777 59.8562 128.853 61.4359 130.752 61.3C135.409 60.9667 134.269 47.9443 140.776 54.5022C145.273 59.0331 144.111 66.7623 137.468 68.5033C135.056 69.1351 126.04 68.9143 123.164 68.7817C115.576 68.4325 113.146 63.8626 108.541 58.5967C104.756 54.2687 100.748 49.5784 96.8835 45.3515Z" fill="#AFFC4C"/>
<path d="M223.567 225.744C220.733 226.938 218.284 228.972 215.421 230.228C208.603 233.218 197.163 235.259 189.738 236.33C165.375 239.847 134.415 235.259 110.482 230.785C97.4061 228.34 86.0896 226.27 74.5147 219.404C66.5188 214.662 68.5344 213.267 59.2443 213.182C49.7689 213.097 35.9487 211.641 34.3735 199.827C33.8199 195.674 36.6557 194.611 38.3239 191.451C41.2214 185.962 41.0186 179.206 41.1819 173.183C41.7484 152.287 45.0763 143.031 53.2236 123.526L69.9069 84.7781C72.17 79.695 74.3854 74.5012 77.2902 69.7453C81.7185 62.4961 88.5172 55.5042 93.861 48.48C95.3136 49.8937 96.5446 51.8053 97.9161 53.3404L106.323 62.6428C117.962 75.4097 116.086 72.277 130.894 73.11C123.666 81.4898 107.893 85.3078 98.691 77.8729C97.0625 76.5572 95.6924 74.8678 93.861 73.8169C92.4482 74.4914 91.7183 75.1795 90.8652 76.4662C93.0857 79.3622 96.0477 81.8151 99.2703 83.5228C96.4513 87.674 95.3797 96.8564 96.4011 101.32C97.0611 104.205 98.7632 107.067 99.9022 109.807C104.184 120.104 106.131 132.201 103.885 143.248C103.703 144.144 102.025 149.333 102.03 149.43C102.228 153.401 109.741 149.445 111.339 149.02C114.016 148.307 122.994 147.746 126.183 147.83L126.474 147.839C120.887 151.114 102.561 168.594 104.118 175.601C104.39 176.821 105.971 177.366 107.065 176.937C108.239 176.475 110.296 171.175 111.052 169.842C116.533 160.177 124.362 154.918 132.59 148.145C140.719 141.454 148.07 134.131 158.539 131.254C165.836 129.249 175.539 128.904 182.317 132.749C177.804 138.425 173.804 153.203 173.801 160.039C173.798 163.785 177.631 163.091 178.081 162.094C178.502 161.165 178.46 157.717 178.609 156.466C181.716 130.405 204.212 109.914 230.25 107.948C236.841 107.451 258.975 110.759 263.939 115.35C265.558 116.848 264.827 126.068 264.827 128.276L264.822 147.839L264.826 235.41C264.826 239.276 265.026 243.27 264.728 247.12C264.417 251.153 258.401 249.946 255.258 249.945L243.392 249.91C237.256 249.875 236.046 250.531 229.967 248.503C223.395 246.31 213.915 242.211 209.447 236.824C211.867 236.224 234.615 228.52 223.567 225.744ZM172.457 177.691C171.499 177.81 170.669 177.836 170.023 178.649C165.885 183.854 179.087 182.42 181.091 182.412C181.983 182.244 182.642 182.09 183.18 181.311C186.6 176.355 174.252 177.676 172.457 177.691ZM226.398 182.412C225.727 182.674 225.034 182.919 224.706 183.615C224.163 184.77 224.212 209.511 224.676 210.73C225.025 211.645 226.271 211.954 227.152 211.912C227.83 211.588 228.54 211.275 228.834 210.529C229.214 209.567 229.279 184.792 228.893 183.806C228.515 182.835 227.361 182.439 226.398 182.412Z" fill="#AFFC4C"/>
</svg>
